<?xml version="1.0" encoding="utf-8"?>
<!-- Generator: Adobe Illustrator 16.0.0, SVG Export Plug-In . SVG Version: 6.00 Build 0)  -->
<!DOCTYPE svg PUBLIC "-//W3C//DTD SVG 1.1//EN" "http://www.w3.org/Graphics/SVG/1.1/DTD/svg11.dtd">
<svg version="1.1" id="Layer_1" xmlns="http://www.w3.org/2000/svg" xmlns:xlink="http://www.w3.org/1999/xlink" x="0px" y="0px"
	 width="173.186px" height="67.319px" viewBox="0 0 173.186 67.319" enable-background="new 0 0 173.186 67.319"
	 xml:space="preserve">
<g>
	<path fill="#000100" d="M42.702,29.278L30.817,44.896h11.946v3.753H24.524v-1.878l11.915-15.708H25.074v-3.753h17.628V29.278z"/>
	<path fill="#000100" d="M52.295,48.649h-4.4V27.311h4.4V48.649z"/>
	<path fill="#000100" d="M77.713,27.311v21.339h-2.139L62.713,35.211v13.438h-4.368V27.311h2.138L73.314,40.75V27.311H77.713z"/>
	<path fill="#000100" d="M124.152,45.016v3.634h-15.459V27.311h4.369v17.705H124.152z"/>
	<path fill="#000100" d="M143.582,41.99l3.391,2.845c-2.107,2.483-5.284,4.057-8.889,4.057c-6.264,0-11.365-4.873-11.365-10.896
		c0-6.022,5.102-10.927,11.365-10.927c3.604,0,6.781,1.604,8.889,4.087L143.582,34c-1.221-1.726-3.238-2.815-5.498-2.815
		c-3.759,0-6.846,2.724-6.846,6.811c0,4.024,3.087,6.811,6.846,6.811C140.343,44.806,142.361,43.716,143.582,41.99z"/>
	<path fill="#000100" d="M173.186,37.995c0,6.023-5.101,10.896-11.456,10.896c-6.324,0-11.457-4.873-11.457-10.896
		c0-6.022,5.133-10.896,11.457-10.896C168.085,27.099,173.186,31.973,173.186,37.995z M168.726,37.995
		c0-3.753-3.146-6.84-6.996-6.84s-6.966,3.087-6.966,6.84c0,3.783,3.116,6.84,6.966,6.84S168.726,41.778,168.726,37.995z"/>
	<text transform="matrix(1.0094 0 0 1 123.8423 64.0947)" fill="#404041" font-family="'ZonaPro-Regular'" font-size="12.0326">ROOFX</text>
	<path fill="#F05B26" d="M50.433,12.825"/>
	<g>
		<path fill="#F05B26" d="M32.141,0C25.353,5.16,0,28.224,0,28.224L32.141,8.816V0z"/>
		<g>
			<polyline fill="#F6921E" points="50.433,21.848 50.433,12.825 32.141,0 32.141,8.768 			"/>
			<polyline fill="#F05B26" points="50.433,12.825 50.433,21.848 65.903,0.795 			"/>
		</g>
	</g>
	<polygon fill="#000100" points="94.271,27.311 92.103,27.311 81.838,48.649 86.452,48.649 88.376,44.322 89.934,40.72 
		93.173,33.667 96.441,40.72 89.934,40.72 92.028,44.322 98,44.322 99.955,48.649 104.568,48.649 	"/>
</g>
</svg>
