<?xml version="1.0" encoding="utf-8"?>
<!-- Generator: Adobe Illustrator 22.0.0, SVG Export Plug-In . SVG Version: 6.00 Build 0)  -->
<svg version="1.1" id="Layer_1" xmlns="http://www.w3.org/2000/svg" xmlns:xlink="http://www.w3.org/1999/xlink" x="0px" y="0px"
	 viewBox="0 0 300 300" style="enable-background:new 0 0 300 300;" xml:space="preserve">
<style type="text/css">
	.st0{fill:url(#SVGID_1_);}
	.st1{fill:url(#SVGID_2_);}
	.st2{fill:url(#SVGID_3_);}
	.st3{fill:url(#SVGID_4_);}
</style>
<g>
	<linearGradient id="SVGID_1_" gradientUnits="userSpaceOnUse" x1="150" y1="68.348" x2="150" y2="248.0197">
		<stop  offset="0" style="stop-color:#537AF9"/>
		<stop  offset="1" style="stop-color:#49ABF0"/>
	</linearGradient>
	<polygon class="st0" points="247.6,76.4 150,132.6 82.5,93.7 150,54.7 187.5,76.4 217.6,59 150,20 37.4,85 37.4,102.3 135,158.7 
		135,236.6 67.5,197.6 67.5,154.3 37.4,137 37.4,215 150,280 164.9,271.4 165,158.7 232.5,119.7 232.5,197.6 195,219.3 195,254 
		262.6,215 262.6,85 	"/>
	<linearGradient id="SVGID_2_" gradientUnits="userSpaceOnUse" x1="161.7805" y1="131.4668" x2="220.4901" y2="99.9648">
		<stop  offset="0" style="stop-color:#FFFFFF;stop-opacity:0"/>
		<stop  offset="1" style="stop-color:#FFFFFF;stop-opacity:0.4"/>
	</linearGradient>
	<polygon class="st1" points="167.2,135.1 256.2,83.8 247.6,78.8 158.6,130.2 	"/>
	<linearGradient id="SVGID_3_" gradientUnits="userSpaceOnUse" x1="177.3392" y1="56.2681" x2="177.3392" y2="71.2273">
		<stop  offset="0" style="stop-color:#FFFFFF;stop-opacity:0"/>
		<stop  offset="1" style="stop-color:#FFFFFF;stop-opacity:0.4"/>
	</linearGradient>
	<polygon class="st2" points="187.5,73.9 196.1,68.9 167.2,52.2 158.6,57.2 	"/>
	<linearGradient id="SVGID_4_" gradientUnits="userSpaceOnUse" x1="90.0921" y1="206.4267" x2="142.7159" y2="236.4975">
		<stop  offset="0" style="stop-color:#FFFFFF;stop-opacity:0"/>
		<stop  offset="1" style="stop-color:#FFFFFF;stop-opacity:0.4"/>
	</linearGradient>
	<polygon class="st3" points="56.7,213.8 56.7,150.6 39.6,140.7 39.6,213.8 150,277.5 158.6,272.6 	"/>
</g>
</svg>
