<?xml version="1.0" encoding="iso-8859-1"?>
<!-- Generator: Adobe Illustrator 19.0.0, SVG Export Plug-In . SVG Version: 6.00 Build 0)  -->
<svg xmlns="http://www.w3.org/2000/svg" xmlns:xlink="http://www.w3.org/1999/xlink" version="1.1" id="Layer_1" x="0px" y="0px" viewBox="0 0 512 512" style="enable-background:new 0 0 512 512;" xml:space="preserve" width="512" height="512">
<g>
	<path d="M201.804,55.325l-91.425,46.712C117.05,111.706,121,123.388,121,136c0,1.868-0.383,3.627-0.551,5.451l90.553,45.276   C222.008,174.132,237.993,166,256,166s33.992,8.132,44.998,20.728l90.553-45.276C391.383,139.627,391,137.868,391,136   c0-12.612,3.95-24.294,10.62-33.962l-91.425-46.712C300.612,75.742,280.011,90,256,90S211.388,75.742,201.804,55.325z"/>
	<path d="M451,317V196c-20.479,0-38.549-10.338-49.38-26.038l-86.986,43.493C315.5,217.508,316,221.693,316,226   c0,27.881-19.193,51.163-45,57.87v140.345c17.347,4.552,31.696,16.481,39.196,32.459l91.425-45.712   C394.95,401.294,391,389.612,391,377C391,343.909,417.909,317,451,317z"/>
	<path d="M241,424.216V283.87c-25.807-6.707-45-29.989-45-57.87c0-4.307,0.5-8.492,1.366-12.545l-86.986-43.493   C99.549,185.662,81.479,196,61,196v121c33.091,0,60,26.909,60,60c0,12.612-3.95,24.294-10.62,33.962l91.425,45.712   C209.304,440.697,223.653,428.768,241,424.216z"/>
	<circle cx="256" cy="226" r="30"/>
	<circle cx="61" cy="136" r="30"/>
	<circle cx="256" cy="30" r="30"/>
	<circle cx="451" cy="136" r="30"/>
	<circle cx="451" cy="377" r="30"/>
	<circle cx="256" cy="482" r="30"/>
	<circle cx="61" cy="377" r="30"/>
</g>















</svg>
