<?xml version="1.0" encoding="iso-8859-1"?>
<!-- Generator: Adobe Illustrator 19.0.0, SVG Export Plug-In . SVG Version: 6.00 Build 0)  -->
<svg xmlns="http://www.w3.org/2000/svg" xmlns:xlink="http://www.w3.org/1999/xlink" version="1.1" id="Layer_1" x="0px" y="0px" viewBox="0 0 512 512" style="enable-background:new 0 0 512 512;" xml:space="preserve" width="512" height="512">
<g>
	<path d="M31,377c0,24.813,20.187,45,45,45c12.11,0,23.11-4.817,31.208-12.625l104.147,52.073C211.13,463.269,211,465.119,211,467   c0,24.813,20.187,45,45,45s45-20.187,45-45c0-1.881-0.13-3.731-0.355-5.552l104.147-52.073C412.89,417.183,423.89,422,436,422   c24.813,0,45-20.187,45-45c0-19.555-12.541-36.228-30-42.42V177.42c17.459-6.192,30-22.865,30-42.42c0-24.813-20.187-45-45-45   c-12.11,0-23.11,4.817-31.208,12.625L300.645,50.552C300.87,48.731,301,46.881,301,45c0-24.813-20.187-45-45-45s-45,20.187-45,45   c0,1.881,0.13,3.731,0.355,5.552l-104.147,52.073C99.11,94.817,88.11,90,76,90c-24.813,0-45,20.187-45,45   c0,19.555,12.541,36.228,30,42.42v157.16C43.541,340.772,31,357.445,31,377z M256,482c-8.271,0-15-6.729-15-15s6.729-15,15-15   s15,6.729,15,15S264.271,482,256,482z M241,225c0-8.271,6.729-15,15-15s15,6.729,15,15s-6.729,15-15,15S241,233.271,241,225z    M436,392c-8.271,0-15-6.729-15-15s6.729-15,15-15s15,6.729,15,15S444.271,392,436,392z M436,120c8.271,0,15,6.729,15,15   s-6.729,15-15,15s-15-6.729-15-15S427.729,120,436,120z M421,177.42v157.16c-17.459,6.192-30,22.865-30,42.42   c0,1.881,0.13,3.731,0.355,5.552l-104.147,52.073c-4.581-4.417-10.09-7.875-16.208-10.045V267.42c17.459-6.192,30-22.865,30-42.42   c0-1.881-0.13-3.731-0.355-5.552l104.147-52.073C409.374,171.792,414.883,175.25,421,177.42z M256,30c8.271,0,15,6.729,15,15   s-6.729,15-15,15s-15-6.729-15-15S247.729,30,256,30z M120.645,129.448l104.147-52.073C232.89,85.183,243.89,90,256,90   s23.11-4.817,31.208-12.625l104.147,52.073C391.13,131.269,391,133.119,391,135s0.13,3.731,0.355,5.552l-104.147,52.073   C279.11,184.817,268.11,180,256,180s-23.11,4.817-31.208,12.625l-104.147-52.073C120.87,138.731,121,136.881,121,135   S120.87,131.269,120.645,129.448z M211.355,219.448C211.13,221.269,211,223.119,211,225c0,19.555,12.541,36.228,30,42.42v157.16   c-6.117,2.17-11.626,5.628-16.208,10.045l-104.147-52.073C120.87,380.731,121,378.881,121,377c0-19.555-12.541-36.228-30-42.42   V177.42c6.117-2.17,11.626-5.628,16.208-10.045L211.355,219.448z M76,120c8.271,0,15,6.729,15,15s-6.729,15-15,15s-15-6.729-15-15   S67.729,120,76,120z M76,362c8.271,0,15,6.729,15,15s-6.729,15-15,15s-15-6.729-15-15S67.729,362,76,362z"/>
</g>















</svg>
